<svg width="17" height="17" viewBox="0 0 17 17" fill="none" xmlns="http://www.w3.org/2000/svg">
<path d="M6.25136 6.18182C6.43304 5.66538 6.79162 5.2299 7.2636 4.95251C7.73559 4.67512 8.29051 4.57373 8.83009 4.66628C9.36967 4.75883 9.85909 5.03936 10.2117 5.45818C10.5642 5.877 10.7572 6.40709 10.7564 6.95455C10.7564 8.5 8.43818 9.27273 8.43818 9.27273M8.5 12.3636H8.50773M16.2273 8.5C16.2273 12.7677 12.7677 16.2273 8.5 16.2273C4.23234 16.2273 0.772727 12.7677 0.772727 8.5C0.772727 4.23234 4.23234 0.772727 8.5 0.772727C12.7677 0.772727 16.2273 4.23234 16.2273 8.5Z" stroke="black" stroke-width="1.5" stroke-linecap="round" stroke-linejoin="round"/>
</svg>
